<?xml version="1.0" encoding="utf-8"?>
<!-- Generator: Adobe Illustrator 19.2.0, SVG Export Plug-In . SVG Version: 6.00 Build 0)  -->
<svg version="1.1" id="Layer_1" xmlns="http://www.w3.org/2000/svg" xmlns:xlink="http://www.w3.org/1999/xlink" x="0px" y="0px"
	 viewBox="0 0 186 91.5" style="enable-background:new 0 0 186 91.5;" xml:space="preserve">
<style type="text/css">
	.st0{fill:#2A4A59;}
	.st1{font-family:'Montserrat-Bold';}
	.st2{font-size:18.9143px;}
	.st3{fill:#11A2DC;}
	.st4{fill:#649FC7;}
	.st5{fill:#0683B0;}
	.st6{fill:#71CDF4;}
	.st7{fill:#1957A7;}
	.st8{fill:#1264B0;}
	.st9{fill:#BF2626;}
	.st10{fill:#D21E48;}
	.st11{fill:#E64C64;}
	.st12{fill:#E74325;}
	.st13{fill:#E56B25;}
	.st14{fill:#B41E3D;}
	.st15{fill:#E81E25;}
	.st16{fill:#E01765;}
	.st17{fill:#E54768;}
	.st18{fill:#EB6A24;}
	.st19{fill:#C02226;}
	.st20{fill:#E44725;}
</style>
<g id="logo__item--business">
	<g transform="translate(1.78125 141.26003482157017) scale(1 1) rotate(0 0 0)">
		<text transform="matrix(1 0 0 1 0 -56.4846)" class="st0 st1 st2">R</text>
		<text transform="matrix(1 0 0 1 13.6938 -56.4846)" class="st0 st1 st2">e</text>
		<text transform="matrix(1 0 0 1 25.0991 -56.4846)" class="st0 st1 st2">a</text>
		<text transform="matrix(1 0 0 1 36.4668 -56.4846)" class="st0 st1 st2">l</text>
		<text transform="matrix(1 0 0 1 42.5947 -56.4846)" class="st0 st1 st2"> </text>
		<text transform="matrix(1 0 0 1 48.2686 -56.4846)" class="st0 st1 st2">D</text>
		<text transform="matrix(1 0 0 1 62.7568 -56.4846)" class="st0 st1 st2">e</text>
		<text transform="matrix(1 0 0 1 74.1621 -56.4846)" class="st0 st1 st2">a</text>
		<text transform="matrix(1 0 0 1 85.5293 -56.4846)" class="st0 st1 st2">l</text>
		<text transform="matrix(1 0 0 1 91.6572 -56.4846)" class="st0 st1 st2"> </text>
		<text transform="matrix(1 0 0 1 97.3315 -56.4846)" class="st0 st1 st2">H</text>
		<text transform="matrix(1 0 0 1 112.1787 -56.4846)" class="st0 st1 st2">o</text>
		<text transform="matrix(1 0 0 1 124.2461 -56.4846)" class="st0 st1 st2">u</text>
		<text transform="matrix(1 0 0 1 136.8047 -56.4846)" class="st0 st1 st2">s</text>
		<text transform="matrix(1 0 0 1 146.5835 -56.4846)" class="st0 st1 st2">i</text>
		<text transform="matrix(1 0 0 1 152.5034 -56.4846)" class="st0 st1 st2">n</text>
		<text transform="matrix(1 0 0 1 165.252 -56.4846)" class="st0 st1 st2">g</text>
	</g>
</g>
<g id="logo__item--logo_0">
	<g transform="translate(82.71217720622951 -9) scale(0.8856088560885609 0.8856088560885609) rotate(0 0 0)">
		<g>
			<g>
				<polygon class="st0" points="6.9,77.9 6.9,77.9 12.2,81.3 17.2,84.5 17.2,84.5 12.2,81.3 				"/>
				<polygon class="st0" points="-3.6,77.8 -3.6,71 1.6,74.5 6.9,77.8 12.2,74.5 17.5,71 17.5,77.9 17.5,84.5 33.3,84.5 33.3,35.2 
					-19.5,35.2 -19.5,84.5 -3.6,84.5 				"/>
				<polygon class="st3" points="6.9,77.9 6.9,84.5 17.2,84.5 12.2,81.3 				"/>
				<polygon class="st4" points="1.6,81.3 -3.4,84.5 6.8,84.5 6.8,77.9 				"/>
				<polygon class="st4" points="6.8,77.9 6.9,77.9 6.9,77.9 				"/>
				<polygon class="st4" points="6.8,77.9 6.8,84.5 6.9,84.5 6.9,77.9 				"/>
				<polygon class="st5" points="17.5,71 12.2,74.5 6.9,77.8 7,77.8 6.9,77.9 6.9,77.9 12.2,81.3 17.2,84.5 17.5,84.5 17.5,77.9 
									"/>
				<polygon class="st5" points="6.9,77.9 6.9,77.9 6.8,77.9 				"/>
				<polygon class="st6" points="1.6,81.3 6.8,77.9 6.8,77.9 6.8,77.9 6.8,77.9 6.8,77.9 6.9,77.8 1.6,74.5 -3.6,71 -3.6,77.8 
					-3.6,84.5 -3.4,84.5 				"/>
				<path class="st6" d="M6.8,77.9L6.8,77.9L6.8,77.9z"/>
				<polygon class="st6" points="6.8,77.9 6.8,77.9 6.8,77.9 				"/>
				<polygon class="st6" points="6.8,77.9 6.8,77.9 1.6,81.3 -3.4,84.5 -3.4,84.5 1.6,81.3 				"/>
				<polygon class="st6" points="6.8,77.9 6.8,77.9 6.8,77.9 				"/>
				<polygon class="st6" points="6.8,77.9 6.9,77.9 6.9,77.9 7,77.8 6.9,77.8 				"/>
				<polygon class="st6" points="6.8,77.9 6.8,77.9 6.9,77.9 6.9,77.9 				"/>
			</g>
			<polygon class="st7" points="6.8,64.4 6.8,71.2 6.8,78.1 12.2,74.6 17.5,71.2 12.2,67.8 			"/>
			<polygon class="st8" points="6.9,64.4 6.9,71.2 7,78 1.6,74.6 -3.7,71.2 1.6,67.8 			"/>
			<polygon class="st9" points="6.9,28.1 6.9,20.9 6.8,13.7 13.5,17.3 20.2,20.9 13.6,24.5 			"/>
			<polygon class="st10" points="20.3,35.1 20.2,27.9 20.2,20.7 13.5,24.3 6.9,27.9 13.6,31.5 			"/>
			<polygon class="st11" points="20.1,35.1 20.1,27.9 20.1,20.7 26.8,24.3 33.6,27.9 26.9,31.5 			"/>
			<polygon class="st12" points="33.6,56.7 33.5,49.5 33.5,42.2 26.9,45.9 20.2,49.5 26.9,53.1 			"/>
			<polygon class="st13" points="33.6,56.7 33.6,49.5 33.6,42.3 40.2,45.9 46.9,49.5 40.2,53.1 			"/>
			<polygon class="st14" points="6.9,42.3 6.9,35.1 6.8,27.9 13.5,31.5 20.2,35.1 13.6,38.7 			"/>
			<polygon class="st15" points="33.6,42.2 33.5,35.1 33.5,27.9 26.9,31.5 20.2,35.1 26.9,38.7 			"/>
			<polygon class="st16" points="33.6,42.3 33.6,35.1 33.6,27.9 40.2,31.5 46.9,35.1 40.2,38.7 			"/>
			<polygon class="st17" points="20.3,49.5 20.2,42.2 20.2,35 13.5,38.6 6.9,42.3 13.6,45.9 			"/>
			<polygon class="st18" points="20.3,49.5 20.3,42.3 20.3,35.1 26.9,38.6 33.6,42.2 26.9,45.9 			"/>
			<polygon class="st19" points="46.9,49.5 46.9,42.2 46.9,35 40.2,38.6 33.6,42.3 40.3,45.9 			"/>
			<polygon class="st20" points="46.9,63.6 46.9,56.4 46.9,49.3 40.2,52.9 33.6,56.5 40.3,60.1 			"/>
			<polygon class="st9" points="6.8,28.4 6.9,21.1 6.9,13.9 0.2,17.5 -6.4,21.1 0.2,24.7 			"/>
			<polygon class="st10" points="-6.5,35.3 -6.5,28.1 -6.4,20.9 0.2,24.5 6.8,28.2 0.2,31.7 			"/>
			<polygon class="st11" points="-6.4,35.3 -6.3,28.2 -6.3,21 -13.1,24.5 -19.8,28.1 -13.1,31.7 			"/>
			<polygon class="st12" points="-19.8,56.8 -19.8,49.7 -19.7,42.5 -13.1,46.1 -6.5,49.8 -13.1,53.3 			"/>
			<polygon class="st13" points="-19.8,56.9 -19.8,49.7 -19.8,42.5 -26.4,46.1 -33.1,49.7 -26.5,53.3 			"/>
			<polygon class="st14" points="6.8,42.5 6.9,35.3 6.9,28.2 0.2,31.7 -6.4,35.3 0.2,38.9 			"/>
			<polygon class="st15" points="-19.8,42.5 -19.8,35.3 -19.7,28.1 -13.1,31.7 -6.5,35.3 -13.1,38.9 			"/>
			<polygon class="st16" points="-19.8,42.5 -19.8,35.3 -19.8,28.2 -26.4,31.7 -33.1,35.3 -26.5,38.9 			"/>
			<polygon class="st17" points="-6.5,49.7 -6.5,42.5 -6.4,35.3 0.2,38.9 6.8,42.5 0.2,46.1 			"/>
			<polygon class="st18" points="-6.5,49.7 -6.5,42.5 -6.5,35.3 -13.1,38.9 -19.8,42.5 -13.1,46.1 			"/>
			<polygon class="st19" points="-33.2,49.7 -33.1,42.5 -33.1,35.3 -26.5,38.9 -19.8,42.5 -26.5,46.1 			"/>
			<polygon class="st20" points="-33.2,63.9 -33.1,56.7 -33.1,49.5 -26.5,53.1 -19.8,56.7 -26.5,60.3 			"/>
		</g>
	</g>
</g>
<g id="logo__item--shape_1">
	<g transform="translate(297.20000076293945 113.20000076293945) scale(0.1095888922794662 0.1095888922794662) rotate(0 0 0)">
		<g>
			<g>
				<path d="M-1072.9-355c-14.3,0-25.9-11.6-25.9-25.9s11.6-25.9,25.9-25.9c14.3,0,25.9,11.6,25.9,25.9S-1058.6-355-1072.9-355z
					 M-1072.9-403.3c-12.4,0-22.4,10-22.4,22.4s10,22.4,22.4,22.4c12.4,0,22.4-10,22.4-22.4S-1060.6-403.3-1072.9-403.3z"/>
			</g>
			<g>
				<path d="M-1086.1-370.6v-15.1h-5.4v-3.1h14.5v3.1h-5.4v15.1L-1086.1-370.6L-1086.1-370.6z"/>
				<path d="M-1074.7-370.6v-18.3h5.5l3.3,12.5l3.3-12.5h5.5v18.3h-3.4v-14.4l-3.6,14.4h-3.5l-3.6-14.4v14.4L-1074.7-370.6z"/>
			</g>
		</g>
	</g>
</g>
</svg>
