<svg id="Layer_1" data-name="Layer 1" xmlns="http://www.w3.org/2000/svg" viewBox="0 0 180.68 87.51"><defs><style>.cls-1{isolation:isolate;font-size:18.91px;font-family:Montserrat;font-weight:700;}.cls-1,.cls-2{fill:#2a4a59;}.cls-3{fill:#11a2dc;}.cls-4{fill:#649fc7;}.cls-5{fill:#0683b0;}.cls-6{fill:#71cdf4;}.cls-7{fill:#1957a7;}.cls-8{fill:#1264b0;}.cls-9{fill:#bf2626;}.cls-10{fill:#d21e48;}.cls-11{fill:#e64c64;}.cls-12{fill:#e74325;}.cls-13{fill:#e56b25;}.cls-14{fill:#b41e3d;}.cls-15{fill:#e81e25;}.cls-16{fill:#e01765;}.cls-17{fill:#e54768;}.cls-18{fill:#eb6a24;}.cls-19{fill:#c02226;}.cls-20{fill:#e44725;}</style></defs><title>logoSvg</title><g id="logo_item--business" data-name="logo  item--business"><text class="cls-1" transform="translate(0 81.64)">R</text><text class="cls-1" transform="translate(13.69 81.64)">e</text><text class="cls-1" transform="translate(25.1 81.64)">a</text><text class="cls-1" transform="translate(36.47 81.64)">l</text><text class="cls-1" transform="translate(42.59 81.64)"> </text><text class="cls-1" transform="translate(48.27 81.64)">D</text><text class="cls-1" transform="translate(62.76 81.64)">e</text><text class="cls-1" transform="translate(74.16 81.64)">a</text><text class="cls-1" transform="translate(85.53 81.64)">l</text><text class="cls-1" transform="translate(91.66 81.64)"> </text><text class="cls-1" transform="translate(97.33 81.64)">H</text><text class="cls-1" transform="translate(112.18 81.64)">o</text><text class="cls-1" transform="translate(124.25 81.64)">u</text><text class="cls-1" transform="translate(136.8 81.64)">s</text><text class="cls-1" transform="translate(146.58 81.64)">i</text><text class="cls-1" transform="translate(152.5 81.64)">n</text><text class="cls-1" transform="translate(165.25 81.64)">g</text></g><g id="logo_item--logo_0" data-name="logo  item--logo 0"><polygon class="cls-2" points="87.04 56.86 87.04 56.86 91.73 59.87 96.16 62.7 96.16 62.7 91.73 59.87 87.04 56.86"/><polygon class="cls-2" points="77.74 56.77 77.74 50.74 82.35 53.84 87.04 56.77 91.73 53.84 96.43 50.74 96.43 56.86 96.43 62.7 110.42 62.7 110.42 19.04 63.66 19.04 63.66 62.7 77.74 62.7 77.74 56.77"/><polygon class="cls-3" points="87.04 56.86 87.04 62.7 96.16 62.7 91.73 59.87 87.04 56.86"/><polygon class="cls-4" points="82.35 59.87 77.92 62.7 86.95 62.7 86.95 56.86 82.35 59.87"/><polygon class="cls-4" points="86.95 56.86 87.04 56.86 87.04 56.86 86.95 56.86"/><polygon class="cls-4" points="86.95 56.86 86.95 62.7 87.04 62.7 87.04 56.86 86.95 56.86"/><polygon class="cls-5" points="96.43 50.74 91.73 53.84 87.04 56.77 87.13 56.77 87.04 56.86 87.04 56.86 91.73 59.87 96.16 62.7 96.43 62.7 96.43 56.86 96.43 50.74"/><polygon class="cls-5" points="87.04 56.86 87.04 56.86 86.95 56.86 87.04 56.86"/><polygon class="cls-6" points="82.35 59.87 86.95 56.86 86.95 56.86 86.95 56.86 86.95 56.86 86.95 56.86 87.04 56.77 82.35 53.84 77.74 50.74 77.74 56.77 77.74 62.7 77.92 62.7 82.35 59.87"/><path class="cls-6" d="M88.73,60h0Z" transform="translate(-1.78 -3.13)"/><path class="cls-6" d="M88.73,60h0Z" transform="translate(-1.78 -3.13)"/><polygon class="cls-6" points="86.95 56.86 86.95 56.86 82.35 59.87 77.92 62.7 77.92 62.7 82.35 59.87 86.95 56.86"/><path class="cls-6" d="M88.73,60h0Z" transform="translate(-1.78 -3.13)"/><polygon class="cls-6" points="86.95 56.86 87.04 56.86 87.04 56.86 87.13 56.77 87.04 56.77 86.95 56.86"/><polygon class="cls-6" points="86.95 56.86 86.95 56.86 87.04 56.86 87.04 56.86 86.95 56.86"/><polygon class="cls-7" points="86.95 44.9 86.95 50.92 86.95 57.03 91.73 53.93 96.43 50.92 91.73 47.91 86.95 44.9"/><polygon class="cls-8" points="87.04 44.9 87.04 50.92 87.13 56.95 82.35 53.93 77.65 50.92 82.35 47.91 87.04 44.9"/><polygon class="cls-9" points="87.04 12.75 87.04 6.38 86.95 0 92.89 3.19 98.82 6.38 92.97 9.56 87.04 12.75"/><polygon class="cls-10" points="98.91 18.95 98.82 12.58 98.82 6.2 92.89 9.39 87.04 12.58 92.97 15.76 98.91 18.95"/><polygon class="cls-11" points="98.73 18.95 98.73 12.58 98.73 6.2 104.67 9.39 110.69 12.58 104.75 15.76 98.73 18.95"/><polygon class="cls-12" points="110.69 38.08 110.6 31.7 110.6 25.24 104.75 28.52 98.82 31.7 104.75 34.89 110.69 38.08"/><polygon class="cls-13" points="110.69 38.08 110.69 31.7 110.69 25.33 116.53 28.52 122.47 31.7 116.53 34.89 110.69 38.08"/><polygon class="cls-14" points="87.04 25.33 87.04 18.95 86.95 12.58 92.89 15.76 98.82 18.95 92.97 22.14 87.04 25.33"/><polygon class="cls-15" points="110.69 25.24 110.6 18.95 110.6 12.58 104.75 15.76 98.82 18.95 104.75 22.14 110.69 25.24"/><polygon class="cls-16" points="110.69 25.33 110.69 18.95 110.69 12.58 116.53 15.76 122.47 18.95 116.53 22.14 110.69 25.33"/><polygon class="cls-17" points="98.91 31.7 98.82 25.24 98.82 18.86 92.89 22.05 87.04 25.33 92.97 28.52 98.91 31.7"/><polygon class="cls-18" points="98.91 31.7 98.91 25.33 98.91 18.95 104.75 22.05 110.69 25.24 104.75 28.52 98.91 31.7"/><polygon class="cls-19" points="122.47 31.7 122.47 25.24 122.47 18.86 116.53 22.05 110.69 25.33 116.62 28.52 122.47 31.7"/><polygon class="cls-20" points="122.47 44.19 122.47 37.81 122.47 31.53 116.53 34.72 110.69 37.9 116.62 41.09 122.47 44.19"/><polygon class="cls-9" points="86.95 13.02 87.04 6.55 87.04 0.18 81.11 3.37 75.26 6.55 81.11 9.74 86.95 13.02"/><polygon class="cls-10" points="75.17 19.13 75.17 12.75 75.26 6.38 81.11 9.56 86.95 12.84 81.11 15.94 75.17 19.13"/><polygon class="cls-11" points="75.26 19.13 75.35 12.84 75.35 6.46 69.33 9.56 63.4 12.75 69.33 15.94 75.26 19.13"/><polygon class="cls-12" points="63.4 38.17 63.4 31.88 63.48 25.51 69.33 28.69 75.17 31.97 69.33 35.07 63.4 38.17"/><polygon class="cls-13" points="63.4 38.26 63.4 31.88 63.4 25.51 57.55 28.69 51.62 31.88 57.46 35.07 63.4 38.26"/><polygon class="cls-14" points="86.95 25.51 87.04 19.13 87.04 12.84 81.11 15.94 75.26 19.13 81.11 22.32 86.95 25.51"/><polygon class="cls-15" points="63.4 25.51 63.4 19.13 63.48 12.75 69.33 15.94 75.17 19.13 69.33 22.32 63.4 25.51"/><polygon class="cls-16" points="63.4 25.51 63.4 19.13 63.4 12.84 57.55 15.94 51.62 19.13 57.46 22.32 63.4 25.51"/><polygon class="cls-17" points="75.17 31.88 75.17 25.51 75.26 19.13 81.11 22.32 86.95 25.51 81.11 28.69 75.17 31.88"/><polygon class="cls-18" points="75.17 31.88 75.17 25.51 75.17 19.13 69.33 22.32 63.4 25.51 69.33 28.69 75.17 31.88"/><polygon class="cls-19" points="51.53 31.88 51.62 25.51 51.62 19.13 57.46 22.32 63.4 25.51 57.46 28.69 51.53 31.88"/><polygon class="cls-20" points="51.53 44.46 51.62 38.08 51.62 31.7 57.46 34.89 63.4 38.08 57.46 41.27 51.53 44.46"/></g><g id="logo_item--shape_1" data-name="logo  item--shape 1"><path d="M179.62,74.3a2.84,2.84,0,1,1,2.84-2.84A2.84,2.84,0,0,1,179.62,74.3Zm0-5.29a2.45,2.45,0,1,0,2.45,2.45A2.45,2.45,0,0,0,179.62,69Z" transform="translate(-1.78 -3.13)"/><path d="M178.18,72.59V70.93h-0.59V70.59h1.59v0.34h-0.59v1.65h-0.41Z" transform="translate(-1.78 -3.13)"/><path d="M179.42,72.59v-2H180L180.39,72l0.36-1.37h0.6v2H181V71l-0.39,1.58H180.2L179.81,71v1.58h-0.38Z" transform="translate(-1.78 -3.13)"/></g></svg>