<?xml version="1.0" encoding="utf-8"?>
<!-- Generator: Adobe Illustrator 15.0.0, SVG Export Plug-In . SVG Version: 6.00 Build 0)  -->
<!DOCTYPE svg PUBLIC "-//W3C//DTD SVG 1.1//EN" "http://www.w3.org/Graphics/SVG/1.1/DTD/svg11.dtd">
<svg version="1.1" id="Layer_1" xmlns="http://www.w3.org/2000/svg" xmlns:xlink="http://www.w3.org/1999/xlink" x="0px" y="0px"
	 width="56px" height="56px" viewBox="0 0 56 56" enable-background="new 0 0 56 56" xml:space="preserve">
<path fill="#8A8A8D" d="M28,0.144C12.616,0.144,0.144,12.617,0.144,28c0,15.387,12.473,27.856,27.856,27.856
	S55.856,43.387,55.856,28C55.856,12.617,43.384,0.144,28,0.144z M39.077,22.321c0.012,0.245,0.017,0.49,0.017,0.738
	c0,7.552-5.748,16.261-16.261,16.261c-3.229,0-6.231-0.945-8.761-2.567c0.449,0.051,0.903,0.078,1.364,0.078
	c2.679,0,5.141-0.911,7.097-2.445c-2.5-0.047-4.611-1.7-5.337-3.968c0.348,0.064,0.705,0.102,1.074,0.102
	c0.522,0,1.027-0.071,1.505-0.2c-2.612-0.527-4.584-2.836-4.584-5.604c0-0.024,0-0.048,0-0.072c0.772,0.429,1.653,0.684,2.589,0.714
	c-1.534-1.023-2.542-2.775-2.542-4.757c0-1.047,0.282-2.03,0.773-2.873c2.817,3.458,7.03,5.733,11.779,5.971
	c-0.097-0.418-0.148-0.853-0.148-1.302c0-3.156,2.559-5.713,5.716-5.713c1.643,0,3.128,0.694,4.17,1.802
	c1.301-0.255,2.525-0.731,3.631-1.387c-0.429,1.336-1.333,2.455-2.514,3.163c1.156-0.136,2.258-0.445,3.281-0.898
	C41.163,20.509,40.194,21.516,39.077,22.321z"/>
</svg>
