<?xml version="1.0" encoding="utf-8"?>
<!-- Generator: Adobe Illustrator 15.0.0, SVG Export Plug-In . SVG Version: 6.00 Build 0)  -->
<!DOCTYPE svg PUBLIC "-//W3C//DTD SVG 1.1//EN" "http://www.w3.org/Graphics/SVG/1.1/DTD/svg11.dtd">
<svg version="1.1" id="Layer_1" xmlns="http://www.w3.org/2000/svg" xmlns:xlink="http://www.w3.org/1999/xlink" x="0px" y="0px"
	 width="56px" height="56px" viewBox="0 0 56 56" enable-background="new 0 0 56 56" xml:space="preserve">
<g>
	<path fill="#E2231A" d="M23.479,18.674c0,1.223,0.388,2.194,1.157,2.919c0.771,0.725,1.803,1.091,3.089,1.091
		c1.336,0,2.386-0.354,3.151-1.053c0.76-0.706,1.139-1.664,1.139-2.9v-7.438c0-1.09-0.388-1.999-1.16-2.691
		C30.073,7.907,29.077,7.56,27.86,7.56c-1.337,0-2.405,0.328-3.196,0.99c-0.788,0.655-1.186,1.545-1.186,2.66V18.674z
		 M26.819,19.859c-0.207-0.214-0.314-0.516-0.314-0.914v-7.843c0-0.314,0.113-0.567,0.334-0.763c0.227-0.195,0.52-0.29,0.876-0.29
		c0.391,0,0.706,0.094,0.946,0.29c0.239,0.196,0.358,0.448,0.358,0.763v7.843c0,0.384-0.119,0.693-0.355,0.914
		c-0.233,0.221-0.549,0.329-0.949,0.329C27.327,20.188,27.028,20.086,26.819,19.859z"/>
	<path fill="#E2231A" d="M34.4,19.954c0,0.857,0.173,1.5,0.517,1.923c0.347,0.435,0.854,0.655,1.539,0.655
		c0.551,0,1.118-0.164,1.705-0.466c0.589-0.303,1.153-0.757,1.692-1.343v1.594h2.944V7.919h-2.944v10.932
		c-0.274,0.315-0.577,0.567-0.904,0.775c-0.331,0.202-0.608,0.303-0.823,0.303c-0.274,0-0.479-0.076-0.599-0.233
		c-0.12-0.151-0.189-0.397-0.189-0.737V7.919H34.4V19.954z"/>
	<polygon fill="#E2231A" points="12.132,2.8 16.074,14.583 16.074,22.317 19.384,22.317 19.384,14.224 23.239,2.8 19.876,2.8 
		17.824,10.605 17.616,10.605 15.466,2.8 	"/>
	<path fill="#E2231A" d="M53.993,35.896c0-5.207-4.227-9.437-9.434-9.437H11.781c-5.21,0-9.431,4.23-9.431,9.437v7.584
		c0,5.207,4.221,9.438,9.431,9.438H44.56c5.207,0,9.434-4.23,9.434-9.438V35.896z"/>
</g>
<path fill="#FFFFFF" d="M10.228,32.764h3.045v15.143h2.944V32.764h3.048v-2.578h-9.037V32.764z M24.664,44.76
	c-0.246,0.283-0.514,0.518-0.811,0.707c-0.293,0.182-0.539,0.27-0.728,0.27c-0.243,0-0.423-0.063-0.536-0.207
	c-0.104-0.139-0.161-0.359-0.161-0.668V34.83h-2.612v10.932c0,0.783,0.154,1.355,0.457,1.746c0.309,0.398,0.759,0.588,1.367,0.588
	c0.489,0,0.996-0.133,1.517-0.418c0.523-0.277,1.024-0.68,1.507-1.209v1.438h2.612V34.83h-2.612V44.76z M36.103,35.506
	c0.438,0.561,0.652,1.373,0.652,2.445v7.256c0,0.92-0.201,1.627-0.614,2.125c-0.407,0.498-1.003,0.738-1.774,0.738
	c-0.515,0-0.968-0.09-1.365-0.285c-0.4-0.188-0.778-0.479-1.119-0.883v1.004H29.24V30.186h2.642v5.705
	c0.354-0.391,0.729-0.701,1.119-0.908c0.4-0.209,0.801-0.309,1.207-0.309C35.037,34.674,35.667,34.951,36.103,35.506z M44.853,35.5
	c0.643,0.662,0.965,1.607,0.965,2.85v3.334h-4.999v2.459c0,0.688,0.085,1.166,0.255,1.438c0.174,0.264,0.47,0.396,0.886,0.396
	c0.435,0,0.737-0.113,0.911-0.34c0.167-0.227,0.258-0.725,0.258-1.494v-0.594h2.689v0.668c0,1.344-0.325,2.352-0.987,3.033
	c-0.649,0.674-1.629,1.008-2.931,1.008c-1.17,0-2.094-0.352-2.765-1.078c-0.668-0.711-1.009-1.701-1.009-2.963V38.35
	c0-1.129,0.369-2.063,1.109-2.775c0.741-0.711,1.689-1.064,2.859-1.064C43.292,34.51,44.213,34.838,44.853,35.5z M43.128,38.33
	c0-0.549-0.094-0.945-0.273-1.174c-0.177-0.244-0.473-0.365-0.87-0.365c-0.416,0-0.713,0.121-0.896,0.365
	c-0.183,0.229-0.271,0.625-0.271,1.174v1.316h2.31V38.33z M34.063,38.096c0-0.447-0.089-0.781-0.274-1.008
	c-0.189-0.227-0.464-0.34-0.813-0.34c-0.186,0-0.372,0.043-0.555,0.125c-0.183,0.088-0.359,0.221-0.539,0.404v8.145
	c0.211,0.207,0.419,0.371,0.621,0.461c0.201,0.094,0.41,0.145,0.631,0.145c0.321,0,0.555-0.096,0.705-0.283
	c0.148-0.184,0.225-0.48,0.225-0.902V38.096z"/>
</svg>
